<?xml version="1.0" encoding="utf-8"?>
<!-- Svg Vector Icons : http://www.onlinewebfonts.com/icon -->
<!DOCTYPE svg PUBLIC "-//W3C//DTD SVG 1.1//EN" "http://www.w3.org/Graphics/SVG/1.1/DTD/svg11.dtd">
<svg version="1.1" xmlns="http://www.w3.org/2000/svg" xmlns:xlink="http://www.w3.org/1999/xlink" x="0px" y="0px" viewBox="0 0 1000 1000" enable-background="new 0 0 1000 1000" xml:space="preserve">
<metadata> Svg Vector Icons : http://www.onlinewebfonts.com/icon </metadata>
<g><path style="fill:#e6e6e6;" d="M589.8,393.4c15.8,0,28.5,12.8,28.5,28.5c0,15.7-12.8,28.5-28.5,28.5c-15.7,0-28.5-12.8-28.5-28.5C561.2,406.2,574,393.4,589.8,393.4z"/><path style="fill:#e6e6e6;" d="M888.4,814.1c-19.8-37.3-42.3-79.6-42.3-146c0-111.1,61.6-150.2,64.1-151.7c9.1-5.4,12.1-17.2,6.7-26.3c-5.4-9.1-17.2-12.1-26.3-6.7c-3.4,2-82.9,50.6-82.9,184.7c0,76,25.9,124.8,46.8,164c14.9,28.1,26.7,50.3,26.7,75.7c0,18.2-4,31.3-11.4,38c-7.6,6.8-17.6,5.8-17.8,5.8c-0.9-0.1-1.8-0.2-2.8-0.2h-70.6c8.2-12.9,13.1-28.1,13.1-44.4V42.4c0-8.6-5.7-16.2-14-18.5c-8.3-2.3-17.1,1.2-21.6,8.6l-93.7,155c-28.7-0.5-113.2-1.2-366-1.2c-53.7,0-80.2,0-93.7,0.1L116.6,20.3c-4.1-7.9-13-11.9-21.6-9.8c-8.6,2.1-14.6,9.8-14.6,18.6V907c0,45.6,37.1,82.8,82.8,82.8h293.1H709h139.3c1.3,0.1,3,0.2,5.3,0.2c9.4,0,26.2-2.1,41.1-14.9c16.6-14.3,25-37,25-67.3C919.6,872.9,904.5,844.3,888.4,814.1z M282.4,488.8c-36.9,0-66.9-30-66.9-66.9c0-36.9,30-66.9,66.9-66.9c36.9,0,66.9,30,66.9,66.9C349.2,458.8,319.2,488.8,282.4,488.8z M469.6,565.8h-14.2l-1.5,26.6c-0.6,10.2-9,18.1-19.1,18.1c-0.4,0-0.7,0-1.1,0c-10.6-0.6-18.7-9.7-18-20.3l1.4-24.4h-14.6c-10.6,0-19.2-8.6-19.2-19.2c0-10.6,8.6-19.2,19.2-19.2h67.1c10.6,0,19.2,8.6,19.2,19.2C488.8,557.3,480.2,565.8,469.6,565.8z M589.8,488.8c-36.9,0-66.9-30-66.9-66.9c0-36.9,30-66.9,66.9-66.9c36.9,0,66.9,30,66.9,66.9C656.6,458.8,626.6,488.8,589.8,488.8z"/><path style="fill:#e6e6e6;" d="M253.9,421.9c0,15.7,12.8,28.5,28.5,28.5c15.7,0,28.5-12.8,28.5-28.5c0-15.7-12.8-28.5-28.5-28.5C266.6,393.4,253.9,406.2,253.9,421.9z"/></g>
</svg>
